<svg width="1400" height="501" viewBox="0 0 1400 501" xmlns="http://www.w3.org/2000/svg"><defs><linearGradient x1="43.904%" y1="59.716%" x2="58.922%" y2="39.694%" id="a"><stop stop-color="#0072CE" stop-opacity=".06" offset="7.639%"/><stop stop-color="#0072CE" stop-opacity=".521" offset="60.62%"/><stop stop-color="#0072CE" stop-opacity=".6" offset="69.7%"/><stop stop-color="#0072CE" stop-opacity=".6" offset="91.7%"/></linearGradient></defs><path d="M1018.4 500h-.8c-63.7 0-116.7-45.8-126.4-105.6v105.6h-1.6v-124.6c-69.3.4-125.6 55.8-125.6 124.6h-1.6c0-34.5-12.7-65.7-35.9-88.7-23.2-23.1-55-35.8-89.7-35.9v124.6h-1.6v-105.6c-9.6 59.5-62.2 105.2-125.6 105.6h-1.6c-63.4-.4-116-46.1-125.6-105.6v105.6h-1.6v-124.6h-.3c-35.7.1-66.8 12.3-89.9 35.3-22.9 22.8-35.5 55-35.5 89.4h-1.6c0-34.8 12.8-67.4 35.9-90.5 18.6-18.5 42.3-30.1 69.5-34.1h-103.7c-.4 68.8-57.7 124.6-128 124.6h-.8v-.8c0-68.3-56.7-123.8-126.4-123.8v-1.6h126.4c-.4-67.9-57-123-126.4-123v-1.6c69.4 0 126-55.1 126.4-123h-126.4v-1.6c69.7 0 126.4-55.5 126.4-123.8v-.9h.8c63.7 0 116.7 45.8 126.4 105.6v-105.6h1.6v124.6c69.3-.4 125.6-55.8 125.6-124.6h1.6c0 68.8 56.3 124.2 125.6 124.6v-124.6h1.6v106.6c4.4-25.8 17.7-50.1 38.6-69.9 24.7-23.3 56.7-36.7 87.8-36.7h.8v.8c0 68 56.3 123.4 125.6 123.8v-124.6h1.6v106.9c4.4-25.8 18.1-50.2 39.6-70.2 24.8-23 57.2-36.7 86.8-36.7h.8v106.9c4.4-25.8 18.1-50.2 39.6-70.2 24.7-23 57.1-36.7 86.8-36.7h.8v124.6c69.3-.4 125.6-55.8 125.6-124.6h1.6c0 68.8 56.3 124.2 125.6 124.6v-124.6h1.6v105.6c9.7-59.8 62.7-105.6 126.4-105.6v1.6c-69.4 0-126 55.1-126.4 123h127.2v.8c0 64.4-49.8 117.6-113.6 124.6 63.8 7 113.6 60.2 113.6 124.6v.8h-107.6c60.9 9.6 107.6 61.4 107.6 124.6h-1.6c0-68.8-56.3-124.2-125.6-124.6v124.6h-1.6v-124.6h-.1c-31.8.1-63.9 14.1-88.4 38.5-23.9 23.8-37.1 54.1-37.1 86.1h-1.6v-124.6c-69.3.4-125.6 55.8-125.6 123.8v.8zm-508.8-124.6v123c69.1-.4 125.2-55.4 125.6-123h-125.6zm-127.2 0c.4 67.7 56.5 122.6 125.6 123v-123h-125.6zm-254.4 0v123c69.1-.4 125.2-55.4 125.6-123h-125.6zm763.2 0c.4 67.7 56.5 122.6 125.6 123v-123h-125.6zm-240.3-.9c29.6 3 56.4 15.4 76.7 35.6 20.1 20 32.5 46.2 35.6 74.8 6.7-57.8 53.7-103.8 112.7-110.3-59.1-6.5-106.2-52.7-112.8-110.6-6.5 57.8-53.3 103.8-112.2 110.5zm494.7.9v104.9c4.2-24.8 16.6-48.3 36-67.6 20.1-19.9 45.2-33 71.1-37.4h-107.1v.1zm-1125.2 0c54.4 8.5 97.4 50.8 106.1 104.1v-104.1h-106.1zm998 0v104.1c8.6-53.3 51.7-95.5 106.1-104.1h-106.1zm254.4-1.6h125.6c-.4-67.7-56.5-122.6-125.6-123v123zm-127.2 0h125.6v-123c-30.3.5-61.6 13.7-85.8 36.5-25.4 23.9-39.6 54.6-39.8 86.5zm-127.2 0h125.6c-.2-33.7-12.2-64.4-33.9-86.6-22.9-23.4-54.6-36-91.7-36.4v123zm-127.2 0h106.1c-54.4-8.5-97.4-50.8-106.1-104.1v104.1zm-381.6 0h125.6v-123c-69.1.4-125.2 55.4-125.6 123zm-127.2 0h125.6v-123c-69.1.4-125.2 55.4-125.6 123zm-127.2 0h106.1c-54.4-8.5-97.4-50.8-106.1-104.1v104.1zm-127.2 0h125.6v-123h-.2c-31.6 0-63.6 13.9-88.1 38.1-23.8 23.7-37.1 53.8-37.3 84.9zm508.8-123v123c69.1-.4 125.2-55.4 125.6-123h-125.6zm-381.6 0c.4 67.7 56.5 122.6 125.6 123v-123h-125.6zm508.8 0c.4 67.7 56.5 122.6 125.6 123v-123h-125.6zm127.2 0c.4 67.7 56.5 122.6 125.6 123v-123h-125.6zm-876.8-.8c59.2 6.5 106.3 52.8 112.8 110.9 3.3-26.9 16.1-52.5 37-73.1 21.3-21.1 48.4-34.5 75.9-37.8-59.2-6.5-106.3-52.6-112.9-110.6-6.6 57.9-53.7 104.1-112.8 110.6zm1018 0c31.5 3.1 58.6 15.4 78.9 36.2 19.1 19.5 30.8 45.6 33.6 74.4 3.5-27.5 17.2-53.5 39.4-74.4 21.2-19.9 47.7-32.6 74.3-36-59.6-6.1-107.2-52.4-113.8-110.7-6.6 57.7-53.5 103.8-112.4 110.5zm-522.8.8v104.1c8.6-53.3 51.7-95.5 106.1-104.1h-106.1zm-127.2 0v104.1c8.6-53.3 51.7-95.5 106.1-104.1h-106.1zm508.8-1.6h125.6v-123c-69.1.4-125.2 55.4-125.6 123zm-127.2 0h106.1c-54.4-8.5-97.4-50.8-106.1-104.1v104.1zm-127.2 0h125.6v-123c-69.1.4-125.2 55.4-125.6 123zm-127.2 0h125.6c-.4-67.7-56.5-122.6-125.6-123v123zm-127.2 0h125.6v-123c-69.1.4-125.2 55.4-125.6 123zm-127.2 0h125.6c-.2-34.9-11.1-64.8-31.7-86.7-22.2-23.5-54.6-36.1-93.9-36.3v123zm890.4-123c.4 67.7 56.5 122.6 125.6 123v-123h-125.6zm127.2 123c69.1-.4 125.2-55.4 125.6-123h-125.6v123zm-508.8-123c.4 67.7 56.5 122.6 125.6 123v-123h-125.6zm254.4 0v123c69.1-.4 125.2-55.4 125.6-123h-125.6zm-890.4 0c.4 67.6 56.5 122.5 125.5 123h.2v-123h-125.7zm141.7-.9c33.2 2.9 60.8 15.3 80.5 36.1 18 19.1 28.8 44.3 31.5 73.6 7-57.5 53.9-103.1 112.7-109.6-59.1-6.5-106.2-52.7-112.8-110.6-6.6 57.6-53.2 103.6-111.9 110.5zm367.1.9v104.1c8.6-53.3 51.7-95.5 106.1-104.1h-106.1zm-107.6 0c54.4 8.5 97.4 50.8 106.1 104.1v-104.1h-106.1zm362 0v104.1c8.6-53.3 51.7-95.5 106.1-104.1h-106.1zm252.8-1.6h107.6c-56.3-8.8-100.5-53.8-106.9-109.8-6.4 56-50.5 101-106.9 109.8h106.2zm-252.8 0h125.6v-123c-29 .2-60.7 13.8-84.9 36.3-26 24.2-40.5 54.9-40.7 86.7zm-127.2 0h125.6v-123c-29 .2-60.7 13.8-84.9 36.3-26 24.2-40.5 54.9-40.7 86.7zm-127.2 0h106.1c-54.4-8.5-97.4-50.8-106.1-104.1v104.1zm-127.2 0h125.6v-123c-30.4.2-61.7 13.4-85.9 36.3-25.4 23.9-39.5 54.7-39.7 86.7zm-381.6 0h125.6c-.4-67.6-56.5-122.6-125.6-123v123zm-107.6 0h106.1v-104.1c-8.7 53.3-51.8 95.6-106.1 104.1z" fill="url(#a)" fill-rule="nonzero"/></svg>