<?xml version="1.0" encoding="UTF-8"?><svg id="a" xmlns="http://www.w3.org/2000/svg" xmlns:xlink="http://www.w3.org/1999/xlink" viewBox="0 0 213.8 60.27"><defs><clipPath id="b"><circle cx="29.83" cy="30.01" r="23.61" style="fill:#0083be;"/></clipPath></defs><g><g><path d="M67.54,24.78c.07,.94,.33,1.59,1.12,1.59s1.01-.52,1.01-1.17c0-.79-.4-1.26-1.75-1.95-1.99-1.03-2.75-1.9-2.75-3.58,0-1.96,1.2-3.25,3.47-3.25,2.67,0,3.44,1.67,3.46,3.43h-2.54c-.04-.8-.19-1.49-.94-1.49-.59,0-.85,.38-.85,1.02s.26,1,1.5,1.62c2.13,1.07,3.03,1.98,3.03,3.91s-1.11,3.41-3.69,3.41c-2.79,0-3.64-1.59-3.7-3.54h2.6Z" style="fill:#fff;"/><path d="M73.47,16.63h2.64v4.34h1.99v-4.34h2.65v11.48h-2.65v-4.92h-1.99v4.92h-2.64v-11.48Z" style="fill:#fff;"/><path d="M89.93,22.3c0,4.21-1.15,6.03-4,6.03-2.66,0-3.84-1.85-3.84-6.09s1.31-5.82,3.95-5.82,3.89,1.88,3.89,5.88Zm-5.09-.06c0,2.83,.26,4.01,1.16,4.01,.96,0,1.17-1.1,1.17-4.01,0-2.72-.23-3.74-1.17-3.74s-1.16,1.06-1.16,3.74Z" style="fill:#fff;"/><path d="M93.81,16.63v8.04c0,.75,.16,1.59,1.09,1.59s1.07-.73,1.07-1.58v-8.05h2.65v7.96c0,2.34-1.14,3.73-3.77,3.73s-3.67-1.38-3.67-3.75v-7.94h2.64Z" style="fill:#fff;"/><path d="M100.09,16.63h2.64v9.34h3.64l-.25,2.14h-6.03v-11.48Z" style="fill:#fff;"/><path d="M107.17,16.63h3.28c3,0,4.22,1.7,4.22,5.52,0,4.07-1.21,5.96-4.31,5.96h-3.19v-11.48Zm2.65,9.48h.49c1.23,0,1.59-.87,1.59-4,0-2.62-.32-3.45-1.57-3.45h-.51v7.45Z" style="fill:#fff;"/><path d="M122.03,23.24h-3.48v2.74h3.93l-.31,2.13h-6.21v-11.48h6.22v2.16h-3.63v2.31h3.48v2.15Z" style="fill:#fff;"/><path d="M126.11,23.41v4.7h-2.6v-11.48h3.88c2.21,0,3.34,1.1,3.34,3.18,0,1.59-.78,2.33-1.47,2.61,.9,.4,1.32,1.14,1.32,2.79v.4c0,1.28,.05,2,.12,2.5h-2.56c-.13-.44-.18-1.46-.18-2.59v-.4c0-1.36-.27-1.72-1.28-1.72h-.57Zm0-1.97h.61c.99,0,1.37-.36,1.37-1.48,0-.95-.33-1.36-1.2-1.36h-.78v2.84Z" style="fill:#fff;"/><path d="M133.88,19.49h1.22v-2.3h1.23v2.3h1.5v1.07h-1.5v5.66c0,.59,.13,.96,.78,.96,.2,0,.45-.01,.61-.04v.96c-.29,.11-.73,.14-1.02,.14-1.01,0-1.6-.41-1.6-1.77v-5.9h-1.22v-1.07Z" style="fill:#fff;"/><path d="M144.34,23.7c0,3.03-1.02,4.57-2.97,4.57s-2.96-1.48-2.96-4.54,1.17-4.38,3.02-4.38,2.91,1.46,2.91,4.35Zm-4.66,.03c0,2.34,.58,3.46,1.71,3.46s1.68-1.13,1.68-3.47c0-2.21-.55-3.29-1.69-3.29s-1.7,.97-1.7,3.3Z" style="fill:#fff;"/><path d="M150.61,24.78c.07,.94,.33,1.59,1.12,1.59s1.01-.52,1.01-1.17c0-.79-.4-1.26-1.75-1.95-1.99-1.03-2.75-1.9-2.75-3.58,0-1.96,1.2-3.25,3.47-3.25,2.67,0,3.44,1.67,3.46,3.43h-2.54c-.04-.8-.19-1.49-.94-1.49-.59,0-.85,.38-.85,1.02s.26,1,1.5,1.62c2.13,1.07,3.03,1.98,3.03,3.91s-1.11,3.41-3.69,3.41c-2.79,0-3.64-1.59-3.7-3.54h2.6Z" style="fill:#fff;"/><path d="M156.55,16.63h2.64v4.34h1.99v-4.34h2.65v11.48h-2.65v-4.92h-1.99v4.92h-2.64v-11.48Z" style="fill:#fff;"/><path d="M173.01,22.3c0,4.21-1.15,6.03-4,6.03-2.66,0-3.84-1.85-3.84-6.09s1.31-5.82,3.95-5.82,3.89,1.88,3.89,5.88Zm-5.09-.06c0,2.83,.26,4.01,1.16,4.01,.96,0,1.17-1.1,1.17-4.01,0-2.72-.23-3.74-1.17-3.74s-1.16,1.06-1.16,3.74Z" style="fill:#fff;"/><path d="M176.89,16.63v8.04c0,.75,.16,1.59,1.09,1.59s1.07-.73,1.07-1.58v-8.05h2.65v7.96c0,2.34-1.14,3.73-3.77,3.73s-3.67-1.38-3.67-3.75v-7.94h2.64Z" style="fill:#fff;"/><path d="M183.17,16.63h2.64v9.34h3.64l-.25,2.14h-6.03v-11.48Z" style="fill:#fff;"/><path d="M190.25,16.63h3.28c3,0,4.22,1.7,4.22,5.52,0,4.07-1.21,5.96-4.31,5.96h-3.19v-11.48Zm2.65,9.48h.49c1.23,0,1.59-.87,1.59-4,0-2.62-.32-3.45-1.57-3.45h-.51v7.45Z" style="fill:#fff;"/><path d="M205.11,23.24h-3.48v2.74h3.93l-.31,2.13h-6.21v-11.48h6.22v2.16h-3.63v2.31h3.48v2.15Z" style="fill:#fff;"/><path d="M209.19,23.41v4.7h-2.6v-11.48h3.88c2.21,0,3.34,1.1,3.34,3.18,0,1.59-.78,2.33-1.47,2.61,.9,.4,1.32,1.14,1.32,2.79v.4c0,1.28,.05,2,.12,2.5h-2.56c-.13-.44-.18-1.46-.18-2.59v-.4c0-1.36-.27-1.72-1.28-1.72h-.57Zm0-1.97h.61c.99,0,1.37-.36,1.37-1.48,0-.95-.33-1.36-1.2-1.36h-.78v2.84Z" style="fill:#fff;"/></g><g><path d="M70.4,37.27h-3.3v2.57h3.69v1.32h-5.29v-8.76h5.1v1.32h-3.5v2.25h3.3v1.31Z" style="fill:#fff;"/><path d="M72.76,34.82l1.03,3.21c.18,.56,.31,1.07,.43,1.58h.04c.12-.52,.26-1.02,.43-1.58l1-3.21h1.68l-2.42,6.33h-1.58l-2.35-6.33h1.73Z" style="fill:#fff;"/><path d="M79.05,38.43c.04,1.15,.93,1.65,1.95,1.65,.74,0,1.26-.12,1.75-.29l.24,1.1c-.54,.23-1.29,.4-2.21,.4-2.06,0-3.26-1.27-3.26-3.21,0-1.75,1.06-3.4,3.1-3.4s2.73,1.69,2.73,3.08c0,.3-.03,.54-.06,.67h-4.23Zm2.78-1.12c0-.59-.25-1.54-1.32-1.54-.98,0-1.39,.89-1.47,1.54h2.79Z" style="fill:#fff;"/><path d="M84.37,36.86c0-.85-.02-1.47-.05-2.04h1.39l.06,1.2h.04c.31-.89,1.05-1.35,1.73-1.35,.16,0,.25,0,.38,.04v1.51c-.14-.03-.28-.04-.47-.04-.76,0-1.29,.49-1.43,1.21-.03,.14-.04,.31-.04,.48v3.28h-1.6v-4.29Z" style="fill:#fff;"/><path d="M90.02,34.82l1.14,3.39c.13,.39,.26,.88,.36,1.23h.04c.1-.36,.22-.83,.34-1.24l.99-3.38h1.71l-1.58,4.32c-.87,2.36-1.46,3.41-2.2,4.07-.63,.55-1.28,.76-1.68,.81l-.36-1.35c.27-.07,.6-.21,.92-.44,.3-.2,.66-.57,.88-1.01,.06-.11,.1-.2,.1-.28,0-.07-.02-.16-.08-.31l-2.33-5.81h1.76Z" style="fill:#fff;"/><path d="M97.72,39.41c.52,.3,1.3,.56,2.12,.56,1.02,0,1.59-.48,1.59-1.2,0-.66-.44-1.05-1.55-1.45-1.45-.51-2.37-1.29-2.37-2.55,0-1.43,1.2-2.52,3.1-2.52,.95,0,1.64,.2,2.1,.43l-.38,1.29c-.32-.17-.93-.42-1.75-.42-1.02,0-1.45,.54-1.45,1.06,0,.67,.51,.99,1.68,1.43,1.52,.58,2.25,1.35,2.25,2.6,0,1.41-1.06,2.63-3.32,2.63-.93,0-1.89-.26-2.37-.56l.35-1.33Z" style="fill:#fff;"/><path d="M105.96,33.01v1.81h1.52v1.19h-1.52v2.79c0,.77,.21,1.17,.82,1.17,.27,0,.48-.03,.62-.07l.03,1.22c-.24,.09-.66,.17-1.16,.17-.59,0-1.08-.2-1.38-.52-.34-.36-.5-.95-.5-1.77v-2.98h-.9v-1.19h.9v-1.43l1.57-.38Z" style="fill:#fff;"/><path d="M109.48,38.43c.04,1.15,.93,1.65,1.95,1.65,.74,0,1.26-.12,1.75-.29l.24,1.1c-.54,.23-1.29,.4-2.21,.4-2.06,0-3.26-1.27-3.26-3.21,0-1.75,1.06-3.4,3.1-3.4s2.73,1.69,2.73,3.08c0,.3-.03,.54-.06,.67h-4.23Zm2.78-1.12c0-.59-.25-1.54-1.32-1.54-.98,0-1.39,.89-1.47,1.54h2.79Z" style="fill:#fff;"/><path d="M114.8,36.92c0-.82-.02-1.5-.05-2.1h1.41l.08,.97h.03c.46-.71,1.2-1.12,2.17-1.12,1.45,0,2.66,1.24,2.66,3.22,0,2.3-1.44,3.4-2.88,3.4-.8,0-1.46-.33-1.78-.84h-.03v3.28h-1.6v-6.81Zm1.6,1.58c0,.15,.01,.3,.04,.44,.16,.65,.73,1.12,1.41,1.12,1.02,0,1.61-.84,1.61-2.09,0-1.12-.54-2.03-1.57-2.03-.66,0-1.26,.48-1.43,1.19-.03,.13-.06,.27-.06,.4v.97Z" style="fill:#fff;"/><path d="M130.59,37.93c0,2.33-1.63,3.37-3.25,3.37-1.79,0-3.17-1.23-3.17-3.26s1.37-3.35,3.28-3.35,3.14,1.33,3.14,3.25Zm-4.77,.07c0,1.22,.61,2.14,1.57,2.14s1.55-.89,1.55-2.16c0-.99-.44-2.13-1.54-2.13s-1.58,1.1-1.58,2.15Z" style="fill:#fff;"/><path d="M131.83,41.15v-5.14h-.86v-1.19h.86v-.27c0-.82,.22-1.64,.77-2.16,.47-.44,1.1-.61,1.66-.61,.42,0,.77,.07,1.02,.16l-.11,1.23c-.17-.06-.39-.12-.68-.12-.79,0-1.06,.67-1.06,1.44v.33h1.38v1.19h-1.37v5.14h-1.6Z" style="fill:#fff;"/><path d="M139.8,33.01v1.81h1.52v1.19h-1.52v2.79c0,.77,.21,1.17,.82,1.17,.27,0,.48-.03,.62-.07l.03,1.22c-.24,.09-.66,.17-1.16,.17-.59,0-1.08-.2-1.38-.52-.34-.36-.5-.95-.5-1.77v-2.98h-.9v-1.19h.9v-1.43l1.57-.38Z" style="fill:#fff;"/><path d="M142.27,31.92h1.6v3.76h.03c.2-.3,.47-.54,.8-.72,.31-.18,.7-.28,1.09-.28,1.08,0,2.21,.71,2.21,2.75v3.73h-1.6v-3.55c0-.92-.33-1.62-1.22-1.62-.63,0-1.06,.42-1.24,.9-.05,.14-.07,.31-.07,.48v3.79h-1.6v-9.23Z" style="fill:#fff;"/><path d="M150.58,38.43c.04,1.15,.93,1.65,1.95,1.65,.74,0,1.26-.12,1.75-.29l.24,1.1c-.54,.23-1.29,.4-2.21,.4-2.06,0-3.26-1.27-3.26-3.21,0-1.75,1.06-3.4,3.09-3.4s2.73,1.69,2.73,3.08c0,.3-.03,.54-.06,.67h-4.23Zm2.78-1.12c0-.59-.25-1.54-1.32-1.54-.98,0-1.39,.89-1.47,1.54h2.79Z" style="fill:#fff;"/><path d="M159.33,41.15l-2.14-8.76h1.71l.83,3.98c.22,1.07,.42,2.18,.57,3.05h.03c.14-.92,.38-1.96,.63-3.07l.94-3.96h1.69l.87,4.03c.21,1.04,.4,2.01,.53,2.96h.03c.15-.97,.36-1.97,.59-3.04l.91-3.96h1.63l-2.36,8.76h-1.71l-.91-4.13c-.22-.99-.38-1.83-.49-2.77h-.03c-.15,.94-.32,1.78-.58,2.78l-1.02,4.12h-1.73Z" style="fill:#fff;"/><path d="M171.96,41.15l-.11-.71h-.04c-.38,.5-1.05,.85-1.86,.85-1.28,0-2-.92-2-1.88,0-1.6,1.42-2.41,3.75-2.4v-.11c0-.42-.16-1.11-1.28-1.1-.62,0-1.27,.2-1.7,.47l-.32-1.04c.48-.29,1.3-.56,2.29-.56,2.03,0,2.61,1.28,2.61,2.67v2.28c0,.58,.03,1.13,.1,1.52h-1.44Zm-.21-3.1c-1.13-.02-2.21,.22-2.21,1.19,0,.62,.41,.91,.91,.91,.64,0,1.1-.41,1.25-.88,.04-.11,.04-.24,.04-.35v-.87Z" style="fill:#fff;"/><path d="M175.62,34.82l1.14,3.39c.13,.39,.26,.88,.36,1.23h.04c.1-.36,.22-.83,.34-1.24l.99-3.38h1.71l-1.59,4.32c-.87,2.36-1.46,3.41-2.2,4.07-.63,.55-1.28,.76-1.68,.81l-.36-1.35c.27-.07,.6-.21,.92-.44,.3-.2,.66-.57,.88-1.01,.06-.11,.1-.2,.1-.28,0-.07-.02-.16-.08-.31l-2.33-5.81h1.76Z" style="fill:#fff;"/></g></g><g><g><g><circle cx="29.83" cy="30.01" r="23.61" style="fill:#0083be;"/><g style="clip-path:url(#b);"><g><path d="M16.91,13.07c.66,.16,1.29,.37,1.83,.8,1.39,1.1,1.84,3.01,1.07,4.6-.77,1.58-2.54,2.43-4.24,2.02-1.76-.42-2.94-1.98-2.89-3.8,.04-1.72,1.33-3.21,3.04-3.55,.08-.02,.15-.05,.23-.07h.97Z" style="fill:#fff;"/><path d="M20.59,52.89c0-.19,.06-16.99,.26-17.1,1.2-.66,1.97-1.59,2.17-2.83,.14-.88,.2-1.77,.29-2.66,.23-2.21,.43-4.41,.68-6.62,.22-1.92-1.38-3.63-3.56-3.67-2.67-.05-5.34-.03-8,0-1.65,.02-3.02,1.04-3.46,2.43-.2,.63-.1,1.27-.04,1.9,.27,2.69,.57,5.38,.81,8.07,.14,1.48,.86,2.62,2.31,3.4,.19,.1,.2,10.84,.2,10.99,0,.19,8.35,6.16,8.35,6.07Z" style="fill:#fff;"/><path d="M43.56,13.07c.66,.16,1.29,.37,1.83,.8,1.39,1.1,1.84,3.01,1.07,4.6-.77,1.58-2.54,2.43-4.24,2.02-1.76-.42-2.94-1.98-2.89-3.8,.04-1.72,1.33-3.21,3.04-3.55,.08-.02,.15-.05,.23-.07h.97Z" style="fill:#fff;"/><path d="M47.24,46.82c0-.19,.06-10.92,.26-11.03,1.2-.66,1.97-1.59,2.17-2.83,.14-.88,.2-1.77,.29-2.66,.23-2.21,.43-4.41,.68-6.62,.22-1.92-1.38-3.63-3.56-3.67-2.67-.05-5.34-.03-8,0-1.65,.02-3.02,1.04-3.46,2.43-.2,.63-.1,1.27-.04,1.9,.27,2.69,.57,5.38,.81,8.07,.14,1.48,.86,2.62,2.31,3.4,.19,.1,.2,18.42,.2,18.58,0,.13,8.35-7.44,8.35-7.58Z" style="fill:#fff;"/><path d="M30.19,8.46c.81,.2,1.59,.45,2.26,.98,1.72,1.36,2.27,3.72,1.32,5.68-.95,1.96-3.14,3-5.24,2.49-2.17-.52-3.63-2.44-3.57-4.7,.05-2.12,1.64-3.97,3.75-4.38,.1-.02,.19-.06,.28-.08h1.2Z" style="fill:#fff;"/><path d="M34.74,55.53c0-.24,.08-18.58,.32-18.71,1.49-.81,2.43-1.97,2.68-3.49,.18-1.09,.24-2.19,.36-3.28,.28-2.72,.53-5.45,.84-8.17,.27-2.37-1.71-4.49-4.4-4.53-3.29-.06-6.59-.04-9.88,0-2.04,.03-3.73,1.28-4.27,3-.24,.78-.13,1.56-.05,2.34,.33,3.32,.7,6.64,1,9.96,.17,1.83,1.06,3.24,2.85,4.2,.23,.13,.25,18.47,.25,18.67,0,.15,10.3,.21,10.3,0Z" style="fill:#fff;"/></g></g></g><polygon points="43.4 25.75 40.78 25.75 40.78 23.14 37.21 23.14 37.21 25.75 34.6 25.75 34.6 29.32 37.21 29.32 37.21 31.93 40.78 31.93 40.78 29.32 43.4 29.32 43.4 25.75" style="fill:#003f72;"/><g><path d="M22.09,25.5h-1.82s-.06,.07-.09,.11c-.11,.14-.21,.28-.29,.42h2.58c-.1-.19-.23-.36-.38-.53Z" style="fill:#003f72; stroke:#003f72; stroke-miterlimit:10; stroke-width:.5px;"/><path d="M22.09,31.37l-.02-.02h-1.78l-.02,.02s-.06,.07-.09,.11c-.06,.07-.11,.15-.16,.22h2.33c-.08-.11-.16-.22-.25-.33Z" style="fill:#003f72; stroke:#003f72; stroke-miterlimit:10; stroke-width:.5px;"/><path d="M19.7,32.29c-.03,.08-.06,.16-.08,.24h3.1c-.02-.08-.05-.16-.08-.24h-2.94Z" style="fill:#003f72; stroke:#003f72; stroke-miterlimit:10; stroke-width:.5px;"/><path d="M22.83,27.48s0-.08,0-.12h-3.32c0,.14,0,.28,.02,.42,0,.05,.02,.1,.03,.16h3.22c.03-.15,.04-.3,.04-.45Z" style="fill:#003f72; stroke:#003f72; stroke-miterlimit:10; stroke-width:.5px;"/><path d="M20.03,29.04c.11,.16,.23,.31,.36,.46h1.56c.14-.15,.26-.3,.37-.46h-2.29Z" style="fill:#003f72; stroke:#003f72; stroke-miterlimit:10; stroke-width:.5px;"/><path d="M22.33,23.12c.07-.11,.14-.22,.2-.34h-2.69c.06,.11,.12,.23,.2,.34v.02h2.28v-.02Z" style="fill:#003f72; stroke:#003f72; stroke-miterlimit:10; stroke-width:.5px;"/><path d="M21.91,23.64l.03-.03h-1.51c.09,.09,.18,.18,.27,.27,.01,0,.02,.02,.03,.03h.89c.1-.09,.2-.18,.29-.27Z" style="fill:#003f72; stroke:#003f72; stroke-miterlimit:10; stroke-width:.5px;"/><path d="M21.42,30.4c.24-.2,.49-.4,.71-.63,.65-.66,1-1.45,1.02-2.29,.01-.86-.31-1.66-.94-2.33-.25-.26-.52-.49-.79-.71,.19-.15,.37-.31,.55-.48,.78-.73,1.17-1.57,1.17-2.5h-.31c0,.84-.36,1.6-1.07,2.27-.19,.17-.38,.34-.58,.5-.27-.22-.54-.45-.78-.7-.56-.59-.87-1.32-.87-2.07h-.31c0,.83,.34,1.65,.96,2.29,.24,.25,.5,.47,.76,.69-.35,.29-.7,.6-1,.96-.57,.69-.82,1.55-.7,2.41,.11,.81,.53,1.56,1.26,2.21,.14,.13,.29,.25,.44,.37-.31,.25-.61,.52-.88,.82-.59,.69-.89,1.53-.84,2.37l.31-.02c-.05-.76,.23-1.52,.77-2.15,.26-.3,.58-.57,.89-.83,.36,.29,.72,.6,1.01,.95,.47,.57,.7,1.29,.65,2.01l.31,.02c.05-.8-.2-1.6-.72-2.23-.3-.36-.65-.67-1-.96Zm-1.88-2.63c-.1-.77,.12-1.54,.63-2.17,.29-.36,.65-.66,1-.96,.28,.23,.56,.46,.81,.73,.57,.6,.86,1.33,.85,2.11-.01,.75-.33,1.47-.93,2.07-.23,.23-.48,.44-.73,.65-.16-.13-.32-.27-.48-.4-.67-.6-1.06-1.28-1.16-2.02Z" style="fill:#003f72; stroke:#003f72; stroke-miterlimit:10; stroke-width:.5px;"/></g></g><g><path d="M5.42,22.51l-4.23-1.52,.22-.61,2.05-.04c.44,0,1.06-.02,1.51,0h0c-.55-.18-1.22-.37-1.98-.64l-1.19-.43,.21-.58,4.23,1.52-.22,.61-2.05,.05c-.44,.01-1.02,.01-1.51-.03h0c.5,.16,1.11,.35,1.98,.67l1.18,.43-.21,.58Z" style="fill:#fff;"/><path d="M5.73,18.57l.94,.73-.3,.6-3.59-2.87,.36-.73,4.43,1.18-.3,.61-1.15-.31-.39,.78Zm-.14-.97l-1-.29c-.29-.08-.68-.21-.99-.31v.02c.25,.18,.61,.43,.84,.6l.83,.63,.32-.65Z" style="fill:#fff;"/><path d="M4.58,15.06l-.41,.67-.56-.34,1.19-1.94,.56,.34-.41,.68,3.28,2-.36,.59-3.28-2Z" style="fill:#fff;"/><path d="M5.61,12.33l3.65,2.61-.4,.57-3.65-2.61,.4-.57Z" style="fill:#fff;"/><path d="M9.47,11.04c1.29,1.09,1.42,1.96,.92,2.56-.57,.67-1.57,.39-2.61-.49-1.03-.87-1.43-1.86-.86-2.53,.59-.7,1.62-.32,2.54,.46Zm-1.21,1.52c.74,.63,1.4,.95,1.68,.61,.29-.35-.23-.98-.92-1.56-.62-.53-1.35-.97-1.65-.61-.28,.33,.17,.95,.88,1.56Z" style="fill:#fff;"/><path d="M11.51,12.23l-3.06-3.28,.47-.44,1.84,.9c.39,.19,.95,.47,1.34,.69h0c-.42-.41-.92-.88-1.47-1.47l-.87-.93,.45-.42,3.06,3.28-.47,.44-1.85-.89c-.4-.19-.91-.45-1.33-.71h0c.38,.37,.83,.82,1.46,1.5l.86,.92-.45,.42Z" style="fill:#fff;"/><path d="M13.57,8.87l.51,1.08-.54,.4-1.89-4.18,.65-.49,3.4,3.06-.55,.41-.88-.8-.7,.52Zm.31-.92l-.76-.72c-.22-.2-.51-.5-.74-.73h-.02c.15,.29,.35,.68,.48,.93l.46,.94,.58-.43Z" style="fill:#fff;"/><path d="M13.71,4.71l.6-.36,2,3.33,1.01-.61,.31,.52-1.61,.97-2.31-3.85Z" style="fill:#fff;"/><path d="M21.12,3.57c.6,1.58,.3,2.41-.42,2.69-.82,.31-1.56-.42-2.05-1.69-.48-1.26-.35-2.32,.47-2.63,.86-.33,1.57,.5,2,1.63Zm-1.79,.75c.35,.91,.77,1.5,1.18,1.35,.42-.16,.27-.97-.05-1.81-.29-.76-.71-1.5-1.15-1.33-.41,.16-.31,.91,.02,1.79Z" style="fill:#fff;"/><path d="M22.33,5.6l-1.11-4.35,.63-.16,1.19,1.67c.25,.36,.61,.87,.85,1.25h.01c-.18-.55-.39-1.21-.59-1.99l-.31-1.23,.6-.15,1.11,4.35-.63,.16-1.19-1.67c-.26-.36-.58-.84-.82-1.26h-.01c.16,.5,.34,1.11,.57,2.01l.31,1.22-.6,.15Z" style="fill:#fff;"/><path d="M27.29,4.54c-.12,.08-.34,.16-.62,.2-.99,.14-1.68-.6-1.88-1.98-.25-1.71,.55-2.45,1.32-2.56,.28-.04,.49-.01,.58,.03l-.04,.61c-.11-.03-.22-.06-.43-.03-.47,.07-.89,.58-.72,1.79,.17,1.2,.67,1.56,1.19,1.49,.16-.02,.32-.08,.42-.14l.17,.58Z" style="fill:#fff;"/><path d="M29.91,2.18c.07,1.69-.47,2.38-1.25,2.41-.87,.04-1.35-.89-1.41-2.24-.06-1.34,.4-2.31,1.28-2.35,.92-.04,1.33,.97,1.38,2.18Zm-1.94,.14c.04,.97,.25,1.67,.7,1.65,.45-.02,.56-.83,.52-1.73-.04-.81-.2-1.64-.67-1.62-.44,.02-.58,.76-.54,1.7Z" style="fill:#fff;"/><path d="M30.69,.03l.7,.04-.21,3.88,1.17,.06-.03,.6-1.87-.1L30.69,.03Z" style="fill:#fff;"/><path d="M35.23,2.7c-.25,1.67-.92,2.25-1.69,2.13-.87-.13-1.16-1.13-.96-2.47,.2-1.33,.83-2.19,1.7-2.07,.91,.13,1.12,1.21,.95,2.4Zm-1.93-.23c-.14,.97-.07,1.69,.37,1.75,.45,.07,.71-.71,.84-1.6,.12-.8,.11-1.65-.35-1.72-.43-.06-.72,.64-.86,1.57Z" style="fill:#fff;"/><path d="M37.56,5.55c-.2,.03-.57,.01-.86-.06-.44-.11-.76-.33-.97-.71-.25-.44-.28-1.12-.07-1.88,.44-1.63,1.47-2.02,2.31-1.8,.3,.08,.51,.2,.62,.3l-.28,.56c-.1-.09-.25-.17-.46-.23-.55-.14-1.16,.14-1.48,1.36-.31,1.18,.03,1.69,.47,1.81,.11,.03,.19,.03,.23,.02l.32-1.21-.46-.12,.15-.56,1.08,.28-.59,2.24Z" style="fill:#fff;"/><path d="M38.52,6.03l.64-1.68,.05-2.86,.69,.26-.07,1.14c-.02,.31-.05,.67-.09,1.01h.01c.18-.28,.39-.56,.6-.84l.67-.89,.68,.26-1.88,2.14-.65,1.71-.65-.25Z" style="fill:#fff;"/><path d="M44.24,3.77c.22,.07,.48,.19,.75,.35,.4,.24,.67,.5,.77,.85,.09,.32,0,.68-.19,1.01-.23,.39-.5,.6-.79,.7-.38,.14-.83,.05-1.14-.14-.06-.04-.11-.07-.17-.1l-.89,1.5-.6-.35,2.26-3.8Zm-.47,2.15s.08,.06,.14,.1c.39,.23,.78,.09,1.04-.35,.22-.36,.25-.75-.15-1-.08-.05-.16-.08-.23-.1l-.8,1.35Z" style="fill:#fff;"/><path d="M46.91,5.42c.23,.1,.49,.26,.72,.43,.36,.27,.62,.56,.67,.92,.05,.34-.06,.63-.28,.92-.31,.42-.75,.59-1.23,.5h0c.18,.29,.13,.62-.12,1.1-.26,.49-.46,.94-.49,1.1l-.58-.43c.03-.14,.22-.55,.47-1.01,.28-.52,.27-.77-.01-.98l-.13-.1-1.12,1.49-.55-.42,2.65-3.54Zm-.65,2.02l.14,.11c.34,.25,.74,.14,1.02-.22,.27-.35,.3-.7-.05-.97-.07-.05-.15-.1-.2-.12l-.9,1.21Z" style="fill:#fff;"/><path d="M49.8,10.63c-1.15,1.23-2.03,1.33-2.6,.79-.64-.6-.31-1.59,.62-2.58,.92-.98,1.93-1.33,2.57-.73,.67,.63,.24,1.63-.59,2.52Zm-1.46-1.29c-.67,.71-1.01,1.35-.69,1.65,.33,.31,.99-.18,1.6-.84,.56-.59,1.03-1.3,.69-1.62-.32-.3-.95,.12-1.6,.8Z" style="fill:#fff;"/><path d="M50.09,14.29c-.18-.09-.48-.32-.67-.54-.29-.34-.44-.71-.39-1.13,.05-.5,.4-1.08,1.01-1.59,1.29-1.09,2.36-.82,2.92-.17,.2,.23,.3,.45,.34,.6l-.55,.3c-.03-.13-.1-.28-.25-.45-.37-.43-1.03-.55-2,.28-.92,.79-.94,1.41-.65,1.76,.08,.09,.14,.14,.18,.15l.95-.82-.31-.36,.44-.38,.73,.85-1.77,1.51Z" style="fill:#fff;"/><path d="M53.94,12.25c.19,.17,.38,.4,.55,.64,.26,.37,.4,.73,.35,1.09-.06,.34-.25,.58-.56,.79-.43,.3-.9,.32-1.33,.07h-.01c.08,.33-.07,.63-.46,1-.4,.39-.74,.74-.82,.89l-.41-.6c.07-.12,.38-.45,.77-.8,.43-.4,.5-.64,.3-.93l-.09-.13-1.54,1.06-.39-.57,3.65-2.5Zm-1.26,1.71l.1,.15c.24,.35,.66,.37,1.03,.12,.37-.25,.51-.56,.26-.94-.05-.07-.11-.14-.15-.18l-1.24,.85Z" style="fill:#fff;"/><path d="M53.15,17.05l-1.14,.34-.32-.6,4.42-1.26,.38,.72-3.53,2.92-.32-.6,.92-.76-.41-.77Zm.87,.44l.82-.65c.23-.18,.57-.43,.83-.62v-.02c-.31,.11-.72,.25-.99,.34l-1,.32,.34,.64Z" style="fill:#fff;"/><path d="M55.67,21.34c.46-.2,1.02-.45,1.49-.61v-.02c-.5,.09-1.05,.18-1.48,.23l-1.87,.22-.17-.45,1.51-1.03c.39-.27,.86-.58,1.31-.83v-.02c-.48,.17-1.05,.36-1.55,.52l-1.63,.54-.21-.57,4.3-1.32,.26,.69-1.55,1.04c-.49,.33-.9,.6-1.34,.86h0c.5-.09,.97-.17,1.56-.26l1.85-.26,.26,.7-4.1,1.84-.22-.59,1.59-.7Z" style="fill:#fff;"/></g><g><path d="M0,34.98l4.28-1.78,.14,.76-1.93,.72c-.47,.17-1.04,.39-1.57,.55v.02c.56-.04,1.15-.05,1.68-.05h2.04l.13,.75-4.63-.21-.14-.75Z" style="fill:#fff;"/><path d="M2.96,38.56l-.29-1.02-1.38,.39,.32,1.15-.6,.17-.52-1.83,4.35-1.23,.49,1.75-.6,.17-.3-1.08-1.19,.34,.29,1.01-.58,.16Z" style="fill:#fff;"/><path d="M5.06,39.09l-.28-.74,.61-.23,.82,2.15-.61,.23-.29-.75-3.61,1.38-.25-.66,3.61-1.38Z" style="fill:#fff;"/><path d="M4.91,43.2l-.46-.95-1.29,.63,.52,1.07-.56,.27-.83-1.7,4.06-1.99,.8,1.63-.56,.27-.49-1-1.12,.54,.46,.95-.54,.26Z" style="fill:#fff;"/><path d="M7.32,42.64c.18,.18,.36,.42,.52,.67,.24,.39,.37,.75,.3,1.11-.07,.34-.28,.57-.6,.77-.45,.28-.92,.28-1.34,0h-.01c.07,.33-.1,.63-.51,.99-.42,.37-.77,.71-.87,.85l-.38-.62c.08-.12,.41-.43,.81-.77,.46-.38,.53-.62,.35-.92l-.08-.14-1.6,.99-.37-.59,3.79-2.34Zm-1.35,1.66l.1,.16c.22,.36,.65,.41,1.04,.17,.38-.23,.54-.54,.31-.93-.05-.08-.1-.15-.15-.19l-1.29,.8Z" style="fill:#fff;"/><path d="M6.59,47.47l-1.08,.54-.42-.54,4.17-2,.5,.65-3.01,3.5-.42-.54,.79-.91-.54-.7Zm.94,.29l.71-.78c.2-.22,.49-.53,.71-.76h-.01c-.28,.14-.66,.36-.92,.49l-.94,.48,.45,.57Z" style="fill:#fff;"/><path d="M7.32,50.24l3.24-3.16,.45,.46-.87,1.88c-.18,.4-.45,.97-.67,1.37h0c.39-.42,.86-.94,1.44-1.5l.92-.89,.43,.45-3.24,3.16-.45-.47,.86-1.88c.18-.41,.44-.93,.69-1.35h0c-.35,.38-.8,.84-1.47,1.49l-.91,.88-.43-.45Z" style="fill:#fff;"/><path d="M10.25,52.06c.06,.18,.23,.43,.41,.58,.33,.28,.68,.23,.91-.05,.23-.28,.2-.58,.08-1.01-.17-.56-.15-1.13,.16-1.5,.45-.54,1.17-.67,1.81-.14,.22,.18,.36,.42,.4,.55l-.49,.39c-.04-.14-.14-.32-.32-.47-.31-.25-.63-.16-.8,.04-.22,.27-.19,.5-.03,1.02,.19,.65,.09,1.13-.22,1.5-.52,.62-1.29,.65-1.89,.15-.26-.21-.45-.5-.5-.66l.48-.4Z" style="fill:#fff;"/><path d="M16.69,52.13l-.92,1.62,.92,.52,.92-1.62,.61,.35-2.23,3.93-.61-.35,.98-1.73-.92-.52-.98,1.73-.61-.35,2.23-3.93,.61,.35Z" style="fill:#fff;"/><path d="M19.38,56.2l-.97-.42-.58,1.32,1.1,.48-.25,.57-1.74-.76,1.81-4.14,1.67,.73-.25,.57-1.02-.45-.5,1.14,.97,.42-.24,.55Z" style="fill:#fff;"/><path d="M20.43,57.52l-.59,1.05-.65-.21,2.34-3.99,.78,.25-.53,4.58-.65-.21,.14-1.19-.84-.27Zm.94-.29l.14-1.04c.04-.3,.11-.71,.17-1.03h-.02c-.15,.28-.34,.67-.48,.92l-.5,.92,.69,.22Z" style="fill:#fff;"/><path d="M23.52,54.96l.69,.15-.84,3.83,1.16,.25-.13,.59-1.84-.4,.97-4.42Z" style="fill:#fff;"/><path d="M25.75,56.06l-.79-.11,.09-.65,2.27,.32-.09,.65-.79-.11-.54,3.83-.7-.1,.55-3.83Z" style="fill:#fff;"/><path d="M28.31,55.68l-.07,1.87,1.05,.04,.07-1.87,.7,.03-.17,4.53-.7-.03,.08-1.99-1.05-.04-.08,1.99-.7-.03,.17-4.53,.7,.03Z" style="fill:#fff;"/><path d="M33.64,58.83l-.06,1.2-.67,.1,.32-4.62,.81-.12,1.56,4.34-.68,.1-.4-1.13-.87,.13Zm.72-.67l-.33-1c-.1-.28-.21-.69-.31-1h-.02c0,.33,0,.76-.02,1.05l-.04,1.05,.72-.11Z" style="fill:#fff;"/><path d="M35.27,55.25c.18-.11,.45-.21,.74-.28,.5-.13,.88-.1,1.2,.07,.44,.23,.8,.74,1.03,1.62,.25,.94,.17,1.59-.07,2-.21,.37-.59,.63-1.14,.77-.24,.06-.48,.1-.64,.12l-1.13-4.29Zm1.66,3.58c.06,0,.12-.02,.17-.03,.46-.12,.79-.63,.44-1.96-.26-.99-.69-1.49-1.27-1.34-.07,.02-.14,.04-.19,.07l.86,3.26Z" style="fill:#fff;"/><path d="M41.57,56c-.21-.46-.47-1.02-.65-1.49h-.02c.11,.5,.2,1.05,.27,1.49l.27,1.88-.45,.18-1.08-1.49c-.28-.38-.6-.86-.87-1.29h-.02c.19,.48,.39,1.05,.56,1.55l.58,1.62-.57,.23-1.44-4.3,.69-.28,1.09,1.53c.34,.49,.63,.89,.9,1.33h.02c-.12-.5-.21-.98-.31-1.57l-.3-1.85,.7-.29,1.95,4.09-.59,.24-.74-1.58Z" style="fill:#fff;"/><path d="M42.22,52.55l2.13,3.99-.62,.33-2.13-3.99,.62-.33Z" style="fill:#fff;"/><path d="M45.25,56.06l-2.47-3.79,.54-.35,1.67,1.22c.36,.26,.86,.63,1.21,.92h.01c-.35-.47-.76-1.04-1.2-1.72l-.7-1.07,.52-.34,2.47,3.79-.54,.35-1.68-1.21c-.36-.26-.82-.61-1.19-.94h-.01c.31,.43,.68,.95,1.19,1.74l.69,1.06-.52,.34Z" style="fill:#fff;"/><path d="M45.89,50.1l2.78,3.57-.55,.43-2.78-3.57,.55-.43Z" style="fill:#fff;"/><path d="M48.83,52.56c.19-.04,.46-.17,.63-.33,.32-.29,.32-.64,.08-.91-.24-.27-.54-.28-.98-.23-.58,.09-1.14-.01-1.46-.38-.47-.53-.5-1.25,.12-1.81,.21-.19,.46-.3,.6-.32l.31,.54c-.14,.02-.33,.09-.51,.25-.3,.27-.25,.6-.07,.8,.23,.26,.47,.26,1.01,.18,.67-.1,1.13,.08,1.45,.44,.54,.6,.46,1.37-.13,1.9-.25,.22-.56,.37-.72,.4l-.32-.54Z" style="fill:#fff;"/><path d="M48.92,48.21l-.54,.58-.48-.45,1.56-1.68,.48,.45-.54,.58,2.83,2.63-.48,.51-2.83-2.63Z" style="fill:#fff;"/><path d="M49.7,46.46c.1-.23,.26-.49,.44-.73,.28-.36,.57-.62,.93-.67,.34-.05,.63,.06,.93,.29,.42,.32,.59,.76,.49,1.25h.01c.28-.17,.62-.12,1.1,.14,.5,.26,.94,.47,1.11,.51l-.44,.58c-.14-.03-.55-.23-1.01-.49-.52-.29-.77-.27-.98,0l-.1,.13,1.5,1.14-.42,.56-3.55-2.71Zm2.03,.67l.11-.14c.26-.34,.15-.75-.22-1.03-.36-.27-.7-.31-.98,.05-.05,.07-.1,.15-.12,.2l1.21,.92Z" style="fill:#fff;"/><path d="M54.48,45.41l.88,.82-.35,.58-3.36-3.19,.42-.7,4.34,1.56-.35,.59-1.13-.41-.46,.75Zm-.06-.98l-.98-.38c-.28-.11-.67-.27-.96-.4v.02c.24,.21,.57,.49,.79,.68l.79,.7,.38-.62Z" style="fill:#fff;"/><path d="M53.34,41.97l-.35,.71-.59-.29,1.02-2.06,.59,.29-.35,.72,3.46,1.71-.31,.63-3.46-1.71Z" style="fill:#fff;"/><path d="M53.79,39.37l4.19,1.71-.26,.65-4.19-1.71,.26-.65Z" style="fill:#fff;"/><path d="M56.88,37.08c1.62,.51,2.09,1.26,1.86,2.01-.26,.84-1.31,.98-2.61,.57-1.29-.4-2.05-1.17-1.79-2.01,.28-.89,1.38-.93,2.54-.57Zm-.53,1.88c.94,.29,1.67,.33,1.8-.1,.14-.44-.6-.82-1.46-1.08-.78-.24-1.63-.37-1.77,.08-.13,.42,.52,.81,1.43,1.1Z" style="fill:#fff;"/><path d="M59.3,36.9l-4.44-.84,.12-.64,2.03-.37c.43-.08,1.05-.19,1.5-.24h0c-.58-.09-1.27-.18-2.06-.33l-1.26-.24,.12-.61,4.44,.84-.12,.64-2.03,.38c-.44,.08-1.01,.17-1.5,.21h0c.52,.08,1.15,.18,2.07,.35l1.24,.24-.12,.61Z" style="fill:#fff;"/></g></g></svg>