<svg width="51" height="51" viewBox="0 0 51 51" fill="none" xmlns="http://www.w3.org/2000/svg">
  <g id="8633822e963c59b69e3179560d3ba1d3">
    <line id="62dd84be57d417aa99eec2ad44db196b" x1="22.2481" y1="29.2981" x2="29.2481" y2="33.2981" stroke="#7FCFCF"></line>
    <line id="601c0ae4f95531002140b79dce2e826d" x1="21.7764" y1="19.285" x2="27.7764" y2="16.285" stroke="#7FCFCF"></line>
    <circle id="93db4ffb55e6278a76fcb436a9bfa1fb" cx="38.7051" cy="34.1519" r="3.1875" fill="#537494" stroke="white"></circle>
    <path id="514d013af5add8a2f64ca363b91fee59" d="M39.1602 37.3394C34.0602 37.3394 32.7852 41.5894 32.7852 43.7144H45.5352C45.5352 41.5894 44.2602 37.3394 39.1602 37.3394Z" fill="#537494" stroke="white"></path>
    <circle id="67a34415df5b2b0ca38e455cfaed6fe3" cx="39.1616" cy="38.2499" r="11.3393" stroke="#537494"></circle>
    <circle id="b210afc3dfe3f80efeff03daf8cf8e6a" cx="11.3848" cy="19.5806" r="3.1875" fill="#537494" stroke="white"></circle>
    <path id="f3bc9687814c7f09739f24c82f2e75a9" d="M11.8398 22.7681C6.73984 22.7681 5.46484 27.0181 5.46484 29.1431H18.2148C18.2148 27.0181 16.9398 22.7681 11.8398 22.7681Z" fill="#537494" stroke="white"></path>
    <circle id="c2c0bc136099723408774dec4b2b080c" cx="11.8393" cy="23.6786" r="11.3393" stroke="#537494"></circle>
    <circle id="8c28fa973a147c3a846847a8337027a4" cx="37.7949" cy="7.74121" r="3.1875" fill="#537494" stroke="white"></circle>
    <path id="fe5dbd1e7991dd3be9eb049f1f21c9af" d="M38.25 10.9287C33.15 10.9287 31.875 15.1787 31.875 17.3037H44.625C44.625 15.1787 43.35 10.9287 38.25 10.9287Z" fill="#537494" stroke="white"></path>
    <circle id="5bc3a38ea4ee92c16bb877efdef1710e" cx="38.2494" cy="11.8393" r="11.3393" stroke="#537494"></circle>
  </g>
</svg>