<svg width="97" height="80" viewBox="0 0 97 80" fill="none" xmlns="http://www.w3.org/2000/svg">
  <g id="3e6d4f05e5fe955f65d2902732059614">
    <circle id="63541a09d291757499c651f336a642bf" cx="48.5" cy="9.09575" r="8.59575" fill="#537494" stroke="white"></circle>
    <path id="8588b7786e29b80d4d176032f1ead4e1" d="M47.4893 18.1915C34.5531 18.1915 31.3191 28.9716 31.3191 34.3617H63.6595C63.6595 28.9716 60.4255 18.1915 47.4893 18.1915Z" fill="#537494" stroke="white"></path>
    <path id="ce761d7f2835ec717553df1b98a3fadd" d="M29.2978 26.2766L23.721 27.7709L27.8035 31.8534L29.2978 26.2766ZM15.5024 40.7791L26.4694 29.8121L25.7623 29.105L14.7953 40.072L15.5024 40.7791Z" fill="#7FCFCF"></path>
    <path id="f6af417174e1efcc7838669a9ff8b998" d="M77.7583 39.9942L77.7583 34.2207L72.7583 37.1074L77.7583 39.9942ZM67.3205 22.9153L75.0753 36.3471L75.9413 35.8471L68.1865 22.4153L67.3205 22.9153Z" fill="#7FCFCF"></path>
    <g id="1de8b94e5baa6c62fff43971e56002f3">
      <circle id="57147c8f19d76938cf3ca5ccf835d118" cx="18.1808" cy="53.5638" r="8.59575" fill="#537494" stroke="white"></circle>
      <path id="843cc67ce41ffd9a55ad7d06c7b908ff" d="M17.1702 62.6596C4.23404 62.6596 1 73.4397 1 78.8298H33.3404C33.3404 73.4397 30.1064 62.6596 17.1702 62.6596Z" fill="#537494" stroke="white"></path>
      <circle id="c9f60b93038bdf5d6be80bcc9b59c376" cx="80.8404" cy="53.5638" r="8.59575" fill="#537494" stroke="white"></circle>
      <path id="868065441175bfed1f8b3f23fb4239d1" d="M79.8298 62.6596C66.8936 62.6596 63.6595 73.4397 63.6595 78.8298H96C96 73.4397 92.7659 62.6596 79.8298 62.6596Z" fill="#537494" stroke="white"></path>
      <path id="f7b6b34a69bcbd41121e6b5666b28d12" d="M38.4961 69.734L43.4961 72.6208L43.4961 66.8473L38.4961 69.734ZM58.5057 69.234L42.9961 69.234L42.9961 70.234L58.5057 70.234L58.5057 69.234Z" fill="#7FCFCF"></path>
    </g>
  </g>
</svg>