<svg width="90" height="62" viewBox="0 0 90 62" fill="none" xmlns="http://www.w3.org/2000/svg">
  <g id="a57fe1a3dff3ae0318598440ed2803fd">
    <circle id="df4208da471355b88e30a11c609e791f" cx="69" cy="12" r="11.5" fill="#537494" stroke="white"></circle>
    <path id="1d6d8de82f3671b15b4033b533fe2630" d="M35.1667 12C35.1667 18.303 29.4718 23.5 22.3333 23.5C15.1948 23.5 9.5 18.303 9.5 12C9.5 5.69698 15.1948 0.5 22.3333 0.5C29.4718 0.5 35.1667 5.69698 35.1667 12Z" fill="#537494" stroke="white"></path>
    <path id="707b4e749615eecdda7f1b496d73a4ab" d="M67.6667 24C50.6 24 46.3334 38.2222 46.3334 45.3333H89C89 38.2222 84.7334 24 67.6667 24Z" fill="#537494" stroke="white"></path>
    <path id="2810d0fff3b7ab0b7020a92d33831a42" d="M22.3333 24C5.26667 24 1 38.2222 1 45.3333H43.6667C43.6667 38.2222 39.4 24 22.3333 24Z" fill="#537494" stroke="white"></path>
    <path id="94bdabf05242350819b14d8c282f9863" d="M61.8334 16C61.8334 24.5235 54.3352 31.5 45 31.5C35.6648 31.5 28.1667 24.5235 28.1667 16C28.1667 7.47652 35.6648 0.5 45 0.5C54.3352 0.5 61.8334 7.47652 61.8334 16Z" fill="#7FCFCF" stroke="white"></path>
    <path id="bedb994d8d467dc95fb87d6a07d2b4ed" d="M46.3333 32C22.8667 32 17 51.5556 17 61.3333H75.6667C75.6667 51.5556 69.8 32 46.3333 32Z" fill="#7FCFCF" stroke="white"></path>
  </g>
</svg>