<svg width="61" height="83" viewBox="0 0 61 83" fill="none" xmlns="http://www.w3.org/2000/svg">
  <g id="52eaa1d0cebb9f24ef9b64a2c3197db9">
    <line id="a2667bbacb61a63d772d40e1624a56f8" x1="30.9932" y1="9.80352" x2="30.8521" y2="0.00718722" stroke="#7FCFCF"></line>
    <path id="474871bcb6faf69a3144adbf6572e909" d="M39.383 72.5004C42.5811 70.1491 40.7156 67.6017 39.383 66.622L21.1083 66.622C18.367 69.4436 19.9661 71.7166 21.1083 72.5004L39.383 72.5004Z" fill="#7FCFCF" stroke="white"></path>
    <path id="7fa7a09ae092ff535c73f8b1c30247f6" d="M39.383 78.3788C42.5811 76.0275 40.7156 73.4802 39.383 72.5004L21.1083 72.5004C18.367 75.3221 19.9661 77.5951 21.1083 78.3788L39.383 78.3788Z" fill="#7FCFCF" stroke="white"></path>
    <path id="e7f4e9ad32670c837c9a2838266e8071" d="M36.1062 82.2978C38.1414 80.7302 36.9542 79.032 36.1062 78.3788L24.4768 78.3788C22.7324 80.2599 23.75 81.7753 24.4768 82.2978L36.1062 82.2978Z" fill="#7FCFCF" stroke="white"></path>
    <g id="66d8ba79ea081a47a20453667b903454">
      <path id="db5a379ebe54c2daf837c2d79f027b10" d="M39.1894 66.622H23.3864C23.3864 59.064 19.4356 53.8316 16.0492 49.1805C12.6629 44.5295 13.2273 28.2508 16.0492 22.437C18.3068 17.7859 26.6092 15.665 30.3718 14.696" stroke="#537494"></path>
      <path id="c94474d274c13c7376c03e424c7a85c5" d="M21.5542 66.622H37.3572C37.3572 59.064 41.308 53.8316 44.6944 49.1805C48.0807 44.5295 47.5163 28.2508 44.6944 22.437C42.4368 17.7859 33.1547 15.665 29.392 14.696" stroke="#537494"></path>
    </g>
    <g id="ea93827bf679375ebfe14c9af994dab6">
      <path id="bc0e2ef7295da6aef87bc685e0244fe7" d="M9.82794 38.3837L0.65659 41.8297" stroke="#7FCFCF"></path>
      <line id="4707db79080fc5d04dbe9661380dc9ff" x1="9.79736" y1="29.892" x2="1.04467e-05" y2="29.892" stroke="#7FCFCF"></line>
      <line id="71252c8bc10b6b4844e902c5b89101a8" x1="11.3457" y1="21.6217" x2="2.05367" y2="18.5158" stroke="#7FCFCF"></line>
      <line id="c3b7ea6dac0914bc3a43cd3b83915d1b" x1="15.8255" y1="15.4869" x2="9.98282" y2="7.62234" stroke="#7FCFCF"></line>
      <line id="d224057dc8aee7130da16d18931ceba8" x1="23.283" y1="11.6159" x2="21.0666" y2="2.0725" stroke="#7FCFCF"></line>
    </g>
    <g id="8c5de6d5b55d2b3425d9cd8b75ad5cbf">
      <path id="70b379fcfa6f0292f2eb0e6c98a4024f" d="M51.1721 38.3837L60.3434 41.8297" stroke="#7FCFCF"></path>
      <line id="3e1f173c2979c5f9e1e59c28e75648c1" y1="-0.5" x2="9.79735" y2="-0.5" transform="matrix(1 -8.74229e-08 -8.74229e-08 -1 51.2026 29.392)" stroke="#7FCFCF"></line>
      <line id="7278a4d5b7cbd67da66c93b8d44c4c97" y1="-0.5" x2="9.79735" y2="-0.5" transform="matrix(0.948423 -0.317007 -0.317007 -0.948423 49.4958 21.1475)" stroke="#7FCFCF"></line>
      <line id="3ea0ac82423d837c6b8b5209d866006c" y1="-0.5" x2="9.79735" y2="-0.5" transform="matrix(0.596353 -0.802722 -0.802722 -0.596353 44.7731 15.1887)" stroke="#7FCFCF"></line>
      <line id="05659348338b4881531f230ff37e8afe" y1="-0.5" x2="9.79735" y2="-0.5" transform="matrix(0.226225 -0.974075 -0.974075 -0.226225 37.2299 11.5027)" stroke="#7FCFCF"></line>
    </g>
  </g>
</svg>