<svg width="91" height="91" viewBox="0 0 91 91" fill="none" xmlns="http://www.w3.org/2000/svg">
  <g id="d88880ff70b85ed0ab62b5f12b00271a">
    <path id="d098f3074825c8688985c785625605c7" d="M42.4983 27.0468C41.5632 26.9874 38.1363 26.5445 31.9093 25.2479C25.6824 23.9512 22.3742 21.6381 21.4984 20.6436L6.95533 45.6334C9.73396 49.1897 15.8523 56.3381 18.0965 56.4806" stroke="#7FCFCF"></path>
    <path id="1906254334d8975d6c37342f84fe295e" d="M43.086 71.0237L50.6916 75.4498C59.3837 80.5083 63.3557 71.1839 55.7501 66.7577L60.0961 69.287C66.161 71.362 71.0414 65.4752 65.1546 60.5949L60.8085 58.0656L64.6113 60.2787L68.4141 62.4918C73.3925 63.9345 77.6405 59.1343 72.8403 54.8862L69.5808 52.9893M65.2347 50.4601L69.5808 52.9893M69.5808 52.9893C75.0133 56.1508 80.9802 50.8964 74.0069 45.3837L52.2767 32.7375" stroke="#7FCFCF"></path>
    <path id="b9ec42d7d19d7a37384d7ca7f61853b0" d="M52.9891 21.5163C56.9718 22.6704 61.4318 18.6723 62.8478 17.0722L79.1455 26.5568C78.7964 39.1532 73.4013 43.092 70.7474 43.4868L66.4013 40.9576L51.1902 32.1053L45.8556 36.2732C39.1228 35.8458 38.4014 32.42 38.8823 30.7605C39.984 29.4708 41.615 27.7519 43.4366 26.1385C46.6465 23.2956 50.4483 20.7799 52.9891 21.5163Z" fill="#537494" stroke="white"></path>
    <path id="1a3ff3be8ad2e3315e5da7040e60b768" d="M32.4319 46.8435C31.7006 42.1018 27.7811 42.3386 25.9128 43.0497L15.1907 61.4737C16.7116 66.0584 20.1705 65.9132 21.7098 65.2676L32.4319 46.8435Z" fill="#537494" stroke="white"></path>
    <path id="edba85565e2c854fa2a337abb9608f3e" d="M38.8474 50.8154C38.3038 45.7512 34.2748 46.1761 32.3283 47.0216L20.534 67.288C21.894 72.1491 25.4467 71.8427 27.0531 71.0819L38.8474 50.8154Z" fill="#537494" stroke="white"></path>
    <path id="df550538aa857ffa7037ffb42e1c2c91" d="M46.6309 52.4362C46.0873 47.372 42.0584 47.7969 40.1119 48.6424L28.3176 68.9088C29.6776 73.7698 33.2303 73.4635 34.8367 72.7027L46.6309 52.4362Z" fill="#537494" stroke="white"></path>
    <path id="e692f97de42e525d753041bc79b77db4" d="M53.2537 56.0521C52.5224 51.3103 48.6029 51.5471 46.7346 52.2582L36.0125 70.6823C37.5333 75.2669 40.9922 75.1218 42.5316 74.4761L53.2537 56.0521Z" fill="#537494" stroke="white"></path>
  </g>
</svg>