<svg width="84" height="61" viewBox="0 0 84 61" fill="none" xmlns="http://www.w3.org/2000/svg">
  <g id="542dd0abd33303eda01a2dcc78550d03">
    <path id="6269fdc9eb11ff73ac1e80efbc83d67f" d="M55.4688 28.7406L61.4753 7.78125C64.4786 8.28028 70.7855 10.7754 71.9868 16.7638C73.1882 22.7522 80.4962 29.2397 84 31.7348C79.4951 33.2319 69.8845 35.3279 67.4819 31.7348C65.0793 28.1418 58.472 28.2416 55.4688 28.7406Z" fill="#7FCFCF"></path>
    <line id="0ef49d60a50a0e930759a19a980b4d4e" x1="56.4266" y1="2.8811" x2="40.8641" y2="54.7561" stroke="#7FCFCF" stroke-width="2"></line>
    <path id="d5f5371d4dc56b3d4f506414c22b2993" d="M44.5938 15.5625C44.5938 23.8444 37.3078 30.625 28.2344 30.625C19.1609 30.625 11.875 23.8444 11.875 15.5625C11.875 7.28064 19.1609 0.5 28.2344 0.5C37.3078 0.5 44.5938 7.28064 44.5938 15.5625Z" fill="#537494" stroke="white"></path>
    <path id="f8d4d2e3f70e8ff96fd07e483c9f86b4" d="M29.5312 31.125C6.70625 31.125 1 50.1458 1 59.6562H58.0625C58.0625 50.1458 52.3563 31.125 29.5312 31.125Z" fill="#537494" stroke="white"></path>
  </g>
</svg>