<svg width="41" height="42" viewBox="0 0 41 42" fill="none" xmlns="http://www.w3.org/2000/svg">
  <g id="0425252eedcb12429d0ca5371eaf2689">
    <g id="881d18893bbfa1edb11403ce673534d4">
      <path id="50e27118ead6d3c27d0c9c1d972c33f3" d="M12.6006 11.7L18.0006 17.9999H15.9004L14.1004 16.4999C2.70039 20.6999 9.60039 35.6999 20.1004 34.7999V36.8999H8.40061C-4.55938 23.9399 5.80061 14.6999 12.6006 11.7Z" fill="#7FCFCF"></path>
      <rect id="a5251d3613d4e754f404cb6886e99fb2" x="10.7432" y="8.40576" width="6.6" height="18" transform="rotate(-41.0097 10.7432 8.40576)" fill="#537494"></rect>
      <rect id="f186f7cd8ca931ee87ac78e42de4d383" x="22.4961" y="22.835" width="7.79999" height="2.4" transform="rotate(-41.0097 22.4961 22.835)" fill="#7FCFCF"></rect>
      <rect id="24a9126f59ab07805caf3cdea3220363" x="7.2002" y="4.33081" width="6.6" height="2.4" transform="rotate(-41.0097 7.2002 4.33081)" fill="#7FCFCF"></rect>
      <rect id="327c09e56c3f6c6cc32bc23d57b8eab7" x="24.4639" y="25.0986" width="7.79999" height="2.4" transform="rotate(-41.0097 24.4639 25.0986)" fill="#7FCFCF"></rect>
      <path id="c13e0d1e5193a63f3e919eee30914b5c" d="M32.3185 22.244L26.4326 27.3623L29.9268 29.0946L33.3225 26.1417L32.3185 22.244Z" fill="#537494"></path>
      <rect id="a15a8d99fe5e3e14e1d8c3e2658b4c53" x="10.0742" y="5.80713" width="4.2" height="5.4" transform="rotate(-41.0097 10.0742 5.80713)" fill="#537494"></rect>
      <rect id="4ebeb72e32885dccbb7ac1fc78fb6f08" y="37.8" width="40.8" height="4.2" fill="#537494"></rect>
    </g>
    <circle id="2d3561c64908552f9f808b5599c372d3" cx="15" cy="15" r="4.5" fill="#537494" stroke="#7FCFCF"></circle>
  </g>
</svg>