<svg width="87" height="94" viewBox="0 0 87 94" fill="none" xmlns="http://www.w3.org/2000/svg">
  <g id="69b9298cb2815ec7640e7ed6f2bd9d01">
    <circle id="d3cd43d4a03dfa5bca8dad108d98cb36" cx="44.5612" cy="8.48781" r="7.98781" fill="#537494" stroke="white"></circle>
    <circle id="e53ffcc40fc024dd0dbbf3f409921311" cx="78.5122" cy="27.5851" r="7.98781" fill="#537494" stroke="white"></circle>
    <circle id="5a2e1643156b600a89b377ffa78587ab" cx="8.48781" cy="27.5851" r="7.98781" fill="#537494" stroke="white"></circle>
    <circle id="1fe192b14bd502abb8746d615ddf49bc" cx="78.5122" cy="65.7803" r="7.98781" fill="#537494" stroke="white"></circle>
    <circle id="ef7da89cf68ddbfea942e18719f0ee57" cx="8.48781" cy="65.7803" r="7.98781" fill="#537494" stroke="white"></circle>
    <circle id="fc1227ffafb5e073d0e877dc777d1604" cx="44.5612" cy="84.8782" r="7.98781" fill="#537494" stroke="white"></circle>
    <path id="b3798e39abf7bc1e00ef178dfef30823" d="M18.6914 61.006L24.4649 61.006L21.5782 56.006L18.6914 61.006ZM68.3083 32.3597L62.5348 32.3597L65.4216 37.3597L68.3083 32.3597ZM22.8385 59.189L64.6612 35.0427L64.1612 34.1767L22.3385 58.323L22.8385 59.189Z" fill="#537494"></path>
    <path id="a68083f638335414bfaabb57caa0717c" d="M18.6914 32.3598L21.5782 37.3598L24.4649 32.3598L18.6914 32.3598ZM68.3083 61.0062L65.4216 56.0062L62.5348 61.0062L68.3083 61.0062ZM22.3385 35.0428L64.1612 59.1892L64.6612 58.3232L22.8385 34.1768L22.3385 35.0428Z" fill="#537494"></path>
    <path id="1f9493ba42bf0d4fbbb006352dc915f9" d="M43.4994 18.0367L40.6126 23.0367L46.3861 23.0367L43.4994 18.0367ZM43.4994 75.3294L46.3861 70.3294L40.6126 70.3294L43.4994 75.3294ZM42.9994 22.5367L42.9994 70.8294L43.9994 70.8294L43.9994 22.5367L42.9994 22.5367Z" fill="#537494"></path>
    <path id="9a716a409260eceebe03fe4333453ec0" d="M54.6701 46.6832C54.6701 52.2228 49.7147 56.7929 43.4993 56.7929C37.284 56.7929 32.3286 52.2228 32.3286 46.6832C32.3286 41.1435 37.284 36.5734 43.4993 36.5734C49.7147 36.5734 54.6701 41.1435 54.6701 46.6832Z" fill="#7FCFCF" stroke="white"></path>
  </g>
</svg>